# xmcd
#
# Track frame offsets: 
#        150
#        13135
#        26602
#        38490
#        53908
#        70895
#        86012
#        102529
#        116178
#        134615
#
# Disc length: 1977 seconds
#
# Revision: 2
# Processed by: cddbd v1.5.2PL0 Copyright (c) Steve Scherf et al.
# Submitted via: ExactAudioCopyFreeDBPlugin 1.0
#
DISCID=8b07b70a
DTITLE=Sound Investment - Sound Investment
DYEAR=1977
DGENRE=Soul
TTITLE0=Woe Is Me
TTITLE1=I'll Take You Just As You Come
TTITLE2=I'm Sorry
TTITLE3=Our First Child
TTITLE4=Funky Skunk
TTITLE5=Stone Go-Getter
TTITLE6=Stay Awhile
TTITLE7=Spare Ribs And Fried Chicken
TTITLE8=Sweet Was The Wine
TTITLE9=Dirty Man
EXTD=
EXTT0=
EXTT1=
EXTT2=
EXTT3=
EXTT4=
EXTT5=
EXTT6=
EXTT7=
EXTT8=
EXTT9=
PLAYORDER=
